<svg id="图层_1" data-name="图层 1" xmlns="http://www.w3.org/2000/svg" viewBox="0 0 264 202"><defs><style>.cls-1{fill:#29abe2;}</style></defs><title>model-redux-logo</title><path class="cls-1" d="M162,155.38a10.6,10.6,0,0,0-1.13-21.14h-.38a10.56,10.56,0,0,0-10.19,10.95,10.84,10.84,0,0,0,3,7c-6.42,12.65-16.23,21.9-31,29.64a51,51,0,0,1-30.77,5.85c-8.49-1.13-15.1-4.91-19.25-11.14-6-9.25-6.61-19.25-1.51-29.26a44.43,44.43,0,0,1,12.84-15.1c-.76-2.45-1.89-6.61-2.45-9.63C53.88,142.36,56.71,169.16,65,181.81c6.23,9.44,18.88,15.29,32.84,15.29a46.43,46.43,0,0,0,11.33-1.32c24.16-4.72,42.47-19.07,52.85-40.4ZM195.27,132c-14.35-16.8-35.49-26.05-59.65-26.05h-3a10.37,10.37,0,0,0-9.25-5.66H123a10.57,10.57,0,0,0,.38,21.14h.38A10.63,10.63,0,0,0,133,115h3.4a71.94,71.94,0,0,1,40.21,12.27c9.44,6.23,16.23,14.35,20,24.16,3.21,7.93,3,15.67-.38,22.28-5.29,10-14.16,15.48-25.86,15.48a48.28,48.28,0,0,1-18.5-4c-2.08,1.89-5.85,4.91-8.49,6.8a58.28,58.28,0,0,0,24.35,5.85c18.12,0,31.52-10,36.62-20,5.47-10.95,5.1-29.83-9.06-45.87ZM99.37,158.59a10.6,10.6,0,0,0,10.57,10.19h.38a10.57,10.57,0,0,0-.38-21.14h-.38a3.22,3.22,0,0,0-1.32.19,69.16,69.16,0,0,1-9.82-41.91,50.64,50.64,0,0,1,11.14-29.26c5.47-7,16-10.38,23.22-10.57,20-.38,28.5,24.54,29.07,34.54,2.45.57,6.61,1.89,9.44,2.83C169,72.89,150.15,57,132,57,115,57,99.37,69.3,93.14,87.42c-8.68,24.16-3,47.38,7.55,65.69a8.48,8.48,0,0,0-1.32,5.47Z"/><rect class="cls-1" width="42.69" height="202"/><rect class="cls-1" x="221.44" width="42.69" height="202"/><rect class="cls-1" x="169.48" y="-25.31" width="16.11" height="101.9" transform="translate(138.74 -149.49) rotate(69.29)"/><rect class="cls-1" x="79.68" y="-26.29" width="15.39" height="103.91" transform="translate(142.29 -46.99) rotate(110.71)"/></svg>